<?xml version="1.0" encoding="utf-8"?>
<!-- Generator: Adobe Illustrator 21.1.0, SVG Export Plug-In . SVG Version: 6.00 Build 0)  -->
<svg version="1.1" id="Layer_1" xmlns="http://www.w3.org/2000/svg" xmlns:xlink="http://www.w3.org/1999/xlink" x="0px" y="0px"
	 viewBox="0 0 22.1 27.7" enable-background="new 0 0 22.1 27.7" xml:space="preserve">
<g>
	<g>
		<path fill="#27A7DE" d="M3.8,10.9h14.6c0.3,0,0.6-0.3,0.6-0.6c0-0.3-0.3-0.6-0.6-0.6h0c-0.3-3.3-2.8-6-6-6.6V2.3h-1.1V0.2
			c0-0.1-0.1-0.2-0.2-0.2s-0.2,0.1-0.2,0.2v2.1H9.9v0.9c-3.2,0.5-5.8,3.2-6,6.6h0c-0.3,0-0.6,0.3-0.6,0.6
			C3.2,10.6,3.5,10.9,3.8,10.9z"/>
		<path fill="#27A7DE" d="M21.4,26.1h-0.8v-7h0.8c0.4,0,0.8-0.3,0.8-0.8c0-0.4-0.3-0.8-0.8-0.8H0.8C0.3,17.6,0,18,0,18.4
			c0,0.4,0.3,0.8,0.8,0.8h0.8v7H0.8c-0.4,0-0.8,0.3-0.8,0.8c0,0.4,0.3,0.8,0.8,0.8h20.6c0.4,0,0.8-0.3,0.8-0.8
			C22.1,26.5,21.8,26.1,21.4,26.1z M18.5,26.1h-1.3v-7h1.3V26.1z M10.4,19.2h1.3v7h-1.3V19.2z M8.3,26.1H7v-7h1.3V26.1z M13.8,19.2
			h1.3v7h-1.3V19.2z M3.6,19.2h1.3v7H3.6V19.2z"/>
		<path fill="#27A7DE" d="M2.9,13.5h0.8c0,0,0,0,0,0v3.3h1.5v-3.3c0,0,0,0,0,0h0.7c0,0,0,0,0,0v3.3h1.5v-3.3c0,0,0,0,0,0h0.7
			c0,0,0,0,0,0v3.3h1.5v-3.3c0,0,0,0,0,0h0.7c0,0,0,0,0,0v3.3h1.5v-3.3c0,0,0,0,0,0h0.7c0,0,0,0,0,0v3.3h1.5v-3.3c0,0,0,0,0,0h0.7
			c0,0,0,0,0,0v3.3h1.5v-3.3c0,0,0,0,0,0H17c0,0,0,0,0,0v3.3h1.5v-3.3c0,0,0,0,0,0h0.8c0.4,0,0.8-0.3,0.8-0.8c0-0.4-0.3-0.8-0.8-0.8
			H2.9c-0.4,0-0.8,0.3-0.8,0.8C2.1,13.2,2.5,13.5,2.9,13.5z"/>
	</g>
</g>
</svg>
